# xmcd
#
# Track frame offsets:
#	150
#	13131
#	28579
#	42973
#	56857
#	71639
#	85494
#	99826
#	112462
#	127187
#	139540
#	151996
#	166713
#	181275
#	195374
#	209161
#	221919
#	237055
#	253612
#	266162
#
# Disc length: 3740 seconds
#
# Revision: 0
# Processed by: cddbd v1.5.2PL0 Copyright (c) Steve Scherf et al.
# Submitted via: EasyCDDAExtractor 16.0.6.1
#
DISCID=2c0e9a14
DTITLE=Περπινιάδης Βαγγέλης - Τραγούδια 45 στροφές-Περπινιάδης Βαγγέλης 1
DYEAR=1997
DGENRE=Λαϊκή
TTITLE0=Περπινιάδης Βαγγέλης-Νόρμα Ρία - Να πας, να πας [1966, Β. Περπινιάδη]
TTITLE1=Περπινιάδης Βαγγέλης-Νόρμα Ρία - Μ' άσπρισες, με γέρασες [1963, Γ. Ζαμ
TTITLE1=πέτα]
TTITLE2=Περπινιάδης Βαγγέλης - Λουλούδια χλωμά κι ένα γράμμα [1965, Μπ. Μπακάλ
TTITLE2=η]
TTITLE3=Περπινιάδης Βαγγέλης-Καλάκη Ρούλα - Καρφιά είναι τα λόγια σου [1965, Μ
TTITLE3=π. Μπακάλη]
TTITLE4=Περπινιάδης Βαγγέλης - Ο Ζέππος εκουράστηκε [1970, Γ. Παπαϊωάννου-Ηλ.Λ
TTITLE4=υμπερόπουλου]
TTITLE5=Περπινιάδης Βαγγέλης-Νόρμα Ρία - Μάς διώξαν απ' το γάμο [1966, Μπ. Μπα
TTITLE5=κάλη-Δ. Γκούτη]
TTITLE6=Περπινιάδης Βαγγέλης - Έχω μιά ζηλιάρα γάτα [1966, Στέφ. Βαρτάνη]
TTITLE7=Περπινιάδης Βαγγέλης - Πριν να κλάψεις για μένα και εσύ [1966, Απ. Καλ
TTITLE7=δάρα-Ε. Μαράβα]
TTITLE8=Περπινιάδης Βαγγέλης-Κούρτη Ρία - Τι σού είπανε για μένα [1967, Απ. Κα
TTITLE8=λδάρα]
TTITLE9=Περπινιάδης Βαγγέλης-Νόρμα Ρία - Στο κατώφλι το δικό σου [1969, Μιχ. Γ
TTITLE9=ενίτσαρη-Χαρ. Βασιλειάδη]
TTITLE10=Περπινιάδης Βαγγέλης - Δυό καρδιές αν είχα [1965, Β. Βασιλειάδη-Πυθαγ
TTITLE10=όρα]
TTITLE11=Περπινιάδης Βαγγέλης - Μόνος μου περιπλανιέμαι [966, Στ. Κάξου-Τ. Βου
TTITLE11=λγαρίδη]
TTITLE12=Περπινιάδης Βαγγέλης-Γρίλλη Μαρία - Πού να πω τα βάσανά μου [1962, Μπ
TTITLE12=Μπακάλη]
TTITLE13=Περπινιάδης Βαγγέλης-Διαμάντη Λίτσα - Γεμάτος πίκρα και καϋμό [1965, 
TTITLE13=Μπ. Μπακάλη]
TTITLE14=Περπινιάδης Βαγγέλης - Μη μού λέτε λόγια [1966, Απ. Καλδάρα-Ε. Μαράβα
TTITLE14=]
TTITLE15=Περπινιάδης Βαγγέλης-Καλάκη Ρούλα-Σεβάς Χανούμ - Πες μου, πώς να κάνω
TTITLE15=κέφι [1962, Μπ. Μπακάλη]
TTITLE16=Περπινιάδης Βαγγέλης-Νόρμα Ρία - Όποιος γεννήθηκε φτωχός [1966, Βασ. 
TTITLE16=Μακρίδη-Α. Παπαδόπουλου]
TTITLE17=Περπινιάδης Βαγγέλης-Νόρμα Ρία-χορωδία - Πικρό ψωμί [1966, Χρ. Λεοντή
TTITLE17=Κ. Βίρβου]
TTITLE18=Περπινιάδης Βαγγέλης-Νόρμα Ρία - Κάλλιο πέντε και στο χέρι [1966, Χρ.
TTITLE18=Λεοντή-Γ. Οικονομίδη]
TTITLE19=Περπινιάδης Βαγγέλης-Νόρμα Ρία-χορωδία - Μέσ' στο σκοτάδι περπατώ [19
TTITLE19=66, Χρ. Λεοντή-Κ. Βίρβου]
EXTD=
EXTT0=
EXTT1=
EXTT2=
EXTT3=
EXTT4=
EXTT5=
EXTT6=
EXTT7=
EXTT8=
EXTT9=
EXTT10=
EXTT11=
EXTT12=
EXTT13=
EXTT14=
EXTT15=
EXTT16=
EXTT17=
EXTT18=
EXTT19=
PLAYORDER=
